<?xml version="1.0" encoding="utf-8"?>
<!-- Generator: Adobe Illustrator 12.0.0, SVG Export Plug-In . SVG Version: 6.00 Build 51448)  -->
<!DOCTYPE svg PUBLIC "-//W3C//DTD SVG 1.1//EN" "http://www.w3.org/Graphics/SVG/1.1/DTD/svg11.dtd" [
	<!ENTITY ns_svg "http://www.w3.org/2000/svg">
	<!ENTITY ns_xlink "http://www.w3.org/1999/xlink">
]>
<svg  version="1.1" xmlns="&ns_svg;" xmlns:xlink="&ns_xlink;" width="334.969" height="73.605" viewBox="0 0 334.969 73.605"
	 overflow="visible" enable-background="new 0 0 334.969 73.605" xml:space="preserve">
<g id="Layer_1">
	<g enable-background="new    ">
		<path d="M17.796,13.302c0,1.113-0.475,2.094-1.425,2.94c-0.957,0.84-2.092,1.26-3.404,1.26H2.046v-3.5h10.295
			c0.335,0,0.629-0.104,0.882-0.315s0.379-0.456,0.379-0.735s-0.126-0.521-0.379-0.726c-0.253-0.211-0.547-0.316-0.882-0.316H5.83
			c-1.319,0-2.454-0.424-3.404-1.271C1.476,9.79,1,8.81,1,7.702s0.475-2.084,1.425-2.926c0.95-0.85,2.085-1.272,3.405-1.272h10.92
			v3.5H6.455c-0.335,0-0.629,0.106-0.882,0.319C5.327,7.529,5.204,7.772,5.204,8.052c0,0.281,0.123,0.528,0.369,0.74
			c0.253,0.214,0.547,0.32,0.882,0.32h6.511c1.319,0,2.454,0.424,3.404,1.271C17.321,11.223,17.796,12.197,17.796,13.302z"/>
		<path d="M34.592,17.504h-5.67L22,12.427v5.076h-4.204v-14H22V8.58l6.921-5.076h5.67l-9.444,6.995L34.592,17.504z"/>
	</g>
</g>
<g id="Layer_2">
	<g>
		<path d="M44.209,34.073H29.284v32.063h-13.75V34.073H0.645V21.76h43.564V34.073z"/>
		<path d="M93.856,41.32c0,3.893-1.554,7.231-4.66,10.015c-3.106,2.784-6.831,4.176-11.175,4.176h-1.997L92.77,66.135H72.345
			l-14.364-9.841v9.841h-13.75V21.76h33.773c4.348,0,8.077,1.393,11.187,4.176c3.109,2.784,4.665,6.122,4.665,10.015V41.32z
			 M80.106,40.24V37c0-0.377-0.088-0.744-0.264-1.102c-0.176-0.356-0.415-0.671-0.719-0.944c-0.304-0.272-0.654-0.487-1.052-0.645
			s-0.807-0.236-1.227-0.236H57.981v9.125h18.864c0.42,0,0.829-0.084,1.227-0.252s0.748-0.388,1.052-0.66s0.543-0.587,0.719-0.944
			C80.018,40.985,80.106,40.618,80.106,40.24z"/>
		<path d="M143.479,35.417c0,3.643-1.448,6.823-4.344,9.544c-2.92,2.742-6.354,4.112-10.301,4.112h-21.23v2.375
			c0,0.638,0.269,1.193,0.806,1.666s1.168,0.709,1.893,0.709h30.199v12.313h-30.795c-4.355,0-8.093-1.38-11.211-4.14
			c-3.095-2.78-4.642-6.115-4.642-10.004V35.935c0-3.867,1.547-7.202,4.642-10.004c3.118-2.78,6.855-4.171,11.211-4.171h19.128
			c3.947,0,7.381,1.382,10.301,4.144C142.03,28.626,143.479,31.797,143.479,35.417z M129.675,36.464
			c0-1.594-0.876-2.391-2.627-2.391h-16.746c-0.352,0-0.69,0.068-1.017,0.205c-0.327,0.137-0.613,0.314-0.858,0.534
			c-0.245,0.221-0.443,0.472-0.596,0.755s-0.228,0.582-0.228,0.896v2.422h19.444C128.799,38.885,129.675,38.079,129.675,36.464z"/>
		<path d="M205.039,66.135h-13.75V36.991c0-0.377-0.094-0.743-0.281-1.099s-0.434-0.669-0.738-0.94s-0.655-0.486-1.054-0.644
			c-0.398-0.156-0.808-0.235-1.229-0.235h-6.886v32.063h-13.75V34.073h-10.125v32.063h-13.75V21.76h45.716
			c4.348,0,8.075,1.391,11.184,4.171c3.108,2.781,4.663,6.115,4.663,10.004V66.135z"/>
		<path d="M254.666,51.992c0,3.889-1.555,7.224-4.664,10.004c-3.134,2.76-6.863,4.14-11.188,4.14h-17.957
			c-4.349,0-8.078-1.38-11.188-4.14c-3.086-2.78-4.629-6.115-4.629-10.004V35.935c0-3.867,1.543-7.202,4.629-10.004
			c3.109-2.78,6.839-4.171,11.188-4.171h17.957c4.348,0,8.077,1.391,11.187,4.171c3.109,2.781,4.665,6.115,4.665,10.004V51.992z
			 M240.916,50.881V36.984c0-0.813-0.316-1.502-0.947-2.065s-1.402-0.846-2.313-0.846h-15.568c-0.912,0-1.689,0.282-2.332,0.846
			s-0.964,1.252-0.964,2.065v13.896c0,0.418,0.087,0.804,0.263,1.158c0.176,0.355,0.409,0.663,0.701,0.924s0.637,0.47,1.034,0.626
			s0.83,0.234,1.298,0.234h15.568c0.911,0,1.683-0.286,2.313-0.86S240.916,51.695,240.916,50.881z"/>
		<path d="M295.319,66.135h-40.656V21.76h13.75v32.063h26.906V66.135z"/>
		<path d="M344.946,51.992c0,3.889-1.555,7.224-4.664,10.004c-3.134,2.76-6.863,4.14-11.188,4.14h-17.957
			c-4.349,0-8.078-1.38-11.188-4.14c-3.086-2.78-4.629-6.115-4.629-10.004V35.935c0-3.867,1.543-7.202,4.629-10.004
			c3.109-2.78,6.839-4.171,11.188-4.171h17.957c4.348,0,8.077,1.391,11.187,4.171c3.109,2.781,4.665,6.115,4.665,10.004V51.992z
			 M331.196,50.881V36.984c0-0.813-0.316-1.502-0.947-2.065s-1.402-0.846-2.313-0.846h-15.568c-0.912,0-1.689,0.282-2.332,0.846
			s-0.964,1.252-0.964,2.065v13.896c0,0.418,0.087,0.804,0.263,1.158c0.176,0.355,0.409,0.663,0.701,0.924s0.637,0.47,1.034,0.626
			s0.83,0.234,1.298,0.234h15.568c0.911,0,1.683-0.286,2.313-0.86S331.196,51.695,331.196,50.881z"/>
	</g>
</g>
</svg>
